<!-- Generated by IcoMoon.io -->
<svg version="1.1" xmlns="http://www.w3.org/2000/svg" width="768" height="768" viewBox="0 0 768 768">
<title>search</title>
<g id="icomoon-ignore">
</g>
<path d="M654.145 586.16l-136.434-116.040c-14.105-12.695-29.189-18.52-41.373-17.959 32.207-37.724 51.662-86.668 51.662-140.16 0-119.293-96.707-216-216-216-119.29 0-216 96.707-216 216s96.707 216 216 216c53.491 0 102.433-19.453 140.16-51.664-0.563 12.184 5.265 27.268 17.959 41.373l116.040 136.434c19.867 22.075 52.324 23.936 72.122 4.135s17.941-52.256-4.136-72.121zM312 456c-79.528 0-144-64.471-144-144s64.471-144 144-144 144 64.471 144 144-64.471 144-144 144z" fill="#424c59"></path>
</svg>
