<svg aria-hidden="true" style="position: absolute; width: 0; height: 0; overflow: hidden;" version="1.1" xmlns="http://www.w3.org/2000/svg" xmlns:xlink="http://www.w3.org/1999/xlink">
<defs>
<symbol id="icon-search-24px" viewBox="0 0 32 32">
<title>search-24px</title>
<path d="M20.667 18.667h-1.053l-0.373-0.36c1.307-1.52 2.093-3.493 2.093-5.64 0-4.787-3.88-8.667-8.667-8.667s-8.667 3.88-8.667 8.667 3.88 8.667 8.667 8.667c2.147 0 4.12-0.787 5.64-2.093l0.36 0.373v1.053l6.667 6.653 1.987-1.987-6.653-6.667zM12.667 18.667c-3.32 0-6-2.68-6-6s2.68-6 6-6 6 2.68 6 6-2.68 6-6 6z"></path>
</symbol>
<symbol id="icon-replay-24px-1" viewBox="0 0 32 32">
<title>replay-24px-1</title>
<path d="M16 6.667v-5.333l-6.667 6.667 6.667 6.667v-5.333c4.413 0 8 3.587 8 8s-3.587 8-8 8-8-3.587-8-8h-2.667c0 5.893 4.773 10.667 10.667 10.667s10.667-4.773 10.667-10.667-4.773-10.667-10.667-10.667z"></path>
</symbol>
<symbol id="icon-fullscreen-24px" viewBox="0 0 32 32">
<title>fullscreen-24px</title>
<path d="M9.333 18.667h-2.667v6.667h6.667v-2.667h-4v-4zM6.667 13.333h2.667v-4h4v-2.667h-6.667v6.667zM22.667 22.667h-4v2.667h6.667v-6.667h-2.667v4zM18.667 6.667v2.667h4v4h2.667v-6.667h-6.667z"></path>
</symbol>
<symbol id="icon-tune-24px" viewBox="0 0 32 32">
<title>tune-24px</title>
<path d="M4 22.667v2.667h8v-2.667h-8zM4 6.667v2.667h13.333v-2.667h-13.333zM17.333 28v-2.667h10.667v-2.667h-10.667v-2.667h-2.667v8h2.667zM9.333 12v2.667h-5.333v2.667h5.333v2.667h2.667v-8h-2.667zM28 17.333v-2.667h-13.333v2.667h13.333zM20 12h2.667v-2.667h5.333v-2.667h-5.333v-2.667h-2.667v8z"></path>
</symbol>
<symbol id="icon-copyright-24px" viewBox="0 0 32 32">
<title>copyright-24px</title>
<path d="M13.44 14.48c0.067-0.44 0.213-0.827 0.4-1.16s0.453-0.613 0.787-0.827c0.32-0.2 0.72-0.293 1.213-0.307 0.307 0.013 0.587 0.067 0.84 0.173 0.267 0.12 0.507 0.28 0.693 0.48s0.333 0.44 0.453 0.707 0.173 0.56 0.187 0.853h2.387c-0.027-0.627-0.147-1.2-0.373-1.72s-0.533-0.973-0.933-1.347-0.88-0.667-1.44-0.88-1.173-0.307-1.853-0.307c-0.867 0-1.627 0.147-2.267 0.453s-1.173 0.707-1.6 1.227-0.747 1.12-0.947 1.813-0.32 1.413-0.32 2.187v0.36c0 0.773 0.107 1.493 0.307 2.187s0.52 1.293 0.947 1.8 0.96 0.92 1.6 1.213 1.4 0.453 2.267 0.453c0.627 0 1.213-0.107 1.76-0.307s1.027-0.48 1.44-0.84 0.747-0.773 0.987-1.253 0.387-0.987 0.4-1.533h-2.387c-0.013 0.28-0.080 0.533-0.2 0.773s-0.28 0.44-0.48 0.613-0.427 0.307-0.693 0.4c-0.253 0.093-0.52 0.12-0.8 0.133-0.48-0.013-0.88-0.107-1.187-0.307-0.333-0.213-0.6-0.493-0.787-0.827s-0.333-0.733-0.4-1.173-0.107-0.893-0.107-1.333v-0.36c0-0.467 0.040-0.907 0.107-1.347zM16 2.667c-7.36 0-13.333 5.973-13.333 13.333s5.973 13.333 13.333 13.333 13.333-5.973 13.333-13.333-5.973-13.333-13.333-13.333zM16 26.667c-5.88 0-10.667-4.787-10.667-10.667s4.787-10.667 10.667-10.667 10.667 4.787 10.667 10.667-4.787 10.667-10.667 10.667z"></path>
</symbol>
<symbol id="icon-close-24px" viewBox="0 0 32 32">
<title>close-24px</title>
<path d="M25.333 8.547l-1.88-1.88-7.453 7.453-7.453-7.453-1.88 1.88 7.453 7.453-7.453 7.453 1.88 1.88 7.453-7.453 7.453 7.453 1.88-1.88-7.453-7.453z"></path>
</symbol>
<symbol id="icon-arrow_back-24px" viewBox="0 0 32 32">
<title>arrow_back-24px</title>
<path d="M26.667 14.667h-16.227l7.453-7.453-1.893-1.88-10.667 10.667 10.667 10.667 1.88-1.88-7.44-7.453h16.227v-2.667z"></path>
</symbol>
<symbol id="icon-burger-icon" viewBox="0 0 32 32">
<title>burger-icon</title>
<path d="M2.667 20.667v2.667h26.667v-2.667h-26.667zM2.667 14v2.667h26.667v-2.667h-26.667zM2.667 7.333v2.667h26.667v-2.667h-26.667z"></path>
</symbol>
<symbol id="icon-favorite-icon-hover" viewBox="0 0 32 32">
<title>favorite-icon-hover</title>
<path d="M16 30.72l-2.24-2.24c-8.32-7.36-13.76-12.32-13.76-18.4 0-4.96 3.84-8.8 8.8-8.8 2.72 0 5.44 1.28 7.2 3.36 1.76-2.080 4.48-3.36 7.2-3.36 4.96 0 8.8 3.84 8.8 8.8 0 6.080-5.44 11.040-13.76 18.4l-2.24 2.24z"></path>
</symbol>
<symbol id="icon-favorite-icon" viewBox="0 0 32 32">
<title>favorite-icon</title>
<path d="M16 30.22c-0.456 0-0.895-0.165-1.237-0.465-1.293-1.13-2.539-2.193-3.639-3.13l-0.006-0.005c-3.224-2.747-6.008-5.12-7.945-7.457-2.165-2.613-3.174-5.090-3.174-7.796 0-2.629 0.902-5.055 2.539-6.831 1.657-1.797 3.929-2.786 6.401-2.786 1.847 0 3.539 0.584 5.028 1.736 0.751 0.581 1.433 1.293 2.033 2.123 0.6-0.83 1.281-1.541 2.033-2.123 1.489-1.152 3.181-1.736 5.028-1.736 2.471 0 4.744 0.99 6.401 2.786 1.637 1.776 2.538 4.201 2.538 6.831 0 2.706-1.008 5.184-3.174 7.796-1.937 2.337-4.721 4.71-7.944 7.457-1.102 0.938-2.35 2.002-3.645 3.136-0.342 0.299-0.782 0.464-1.237 0.464zM8.939 3.624c-1.942 0-3.725 0.775-5.023 2.182-1.317 1.428-2.042 3.403-2.042 5.56 0 2.276 0.846 4.312 2.743 6.6 1.833 2.212 4.56 4.536 7.717 7.227l0.006 0.005c1.104 0.941 2.355 2.007 3.657 3.146 1.31-1.141 2.563-2.209 3.669-3.151 3.157-2.691 5.884-5.014 7.717-7.226 1.896-2.289 2.742-4.324 2.742-6.6 0-2.157-0.725-4.132-2.042-5.56-1.297-1.407-3.081-2.182-5.023-2.182-1.422 0-2.728 0.452-3.881 1.344-1.028 0.795-1.743 1.8-2.163 2.503-0.216 0.362-0.596 0.577-1.016 0.577s-0.801-0.216-1.016-0.577c-0.419-0.703-1.135-1.708-2.163-2.503-1.153-0.892-2.459-1.344-3.881-1.344z"></path>
</symbol>
</defs>
</svg>
